<svg width="208" height="59" viewBox="0 0 208 59" fill="none" xmlns="http://www.w3.org/2000/svg">
<path d="M99.16 38.176C99.48 38.048 99.7467 37.984 99.96 37.984C100.301 37.984 100.557 38.112 100.728 38.368C100.899 38.624 100.984 38.9547 100.984 39.36C100.984 40 100.824 40.544 100.504 40.992C100.205 41.44 99.6827 41.8453 98.936 42.208C97.6773 42.8053 96.0453 43.2853 94.04 43.648C92.0347 43.9893 90.0613 44.16 88.12 44.16C85.432 44.16 83.1813 43.8613 81.368 43.264C79.5547 42.6453 78.2 41.8027 77.304 40.736C76.4293 39.6693 75.992 38.464 75.992 37.12C75.992 35.2853 76.5787 33.728 77.752 32.448C78.9467 31.1467 80.696 30.208 83 29.632C81.7413 29.2693 80.7707 28.6293 80.088 27.712C79.4267 26.7947 79.096 25.7707 79.096 24.64C79.096 23.104 79.576 21.7493 80.536 20.576C81.5173 19.3813 82.8293 18.464 84.472 17.824C86.1147 17.184 87.9173 16.864 89.88 16.864C92.5253 16.864 94.5093 17.44 95.832 18.592C97.1547 19.7227 97.816 21.1947 97.816 23.008C97.816 24.2667 97.5813 25.2907 97.112 26.08C96.664 26.848 96.0133 27.232 95.16 27.232C94.5627 27.232 94.0933 27.104 93.752 26.848C93.4107 26.5707 93.24 26.1653 93.24 25.632C93.24 25.2693 93.2933 24.8747 93.4 24.448C93.5067 23.744 93.56 23.264 93.56 23.008C93.56 22.24 93.272 21.6213 92.696 21.152C92.12 20.6613 91.16 20.416 89.816 20.416C88.0027 20.416 86.552 20.8 85.464 21.568C84.376 22.336 83.832 23.3707 83.832 24.672C83.832 25.6747 84.2373 26.5067 85.048 27.168C85.88 27.808 87.224 28.16 89.08 28.224C89.5493 28.2453 89.88 28.352 90.072 28.544C90.264 28.736 90.36 29.056 90.36 29.504C90.36 30.912 89.72 31.6267 88.44 31.648C86.6693 31.6907 85.1973 31.936 84.024 32.384C82.872 32.832 82.0293 33.408 81.496 34.112C80.984 34.7947 80.728 35.5307 80.728 36.32C80.728 37.6427 81.3467 38.6453 82.584 39.328C83.8213 39.9893 85.784 40.32 88.472 40.32C90.2427 40.32 92.1093 40.1173 94.072 39.712C96.056 39.2853 97.752 38.7733 99.16 38.176ZM101.785 44.16C100.462 44.16 99.4058 43.68 98.6165 42.72C97.8272 41.76 97.4325 40.5013 97.4325 38.944C97.4325 37.2373 97.8272 35.6267 98.6165 34.112C99.4058 32.576 100.451 31.3493 101.753 30.432C103.075 29.4933 104.473 29.024 105.945 29.024C106.414 29.024 106.723 29.12 106.873 29.312C107.043 29.4827 107.182 29.8027 107.289 30.272C107.737 30.1867 108.206 30.144 108.697 30.144C109.742 30.144 110.265 30.5173 110.265 31.264C110.265 31.712 110.105 32.7787 109.785 34.464C109.294 36.9173 109.049 38.624 109.049 39.584C109.049 39.904 109.123 40.16 109.273 40.352C109.443 40.544 109.657 40.64 109.913 40.64C110.318 40.64 110.809 40.384 111.385 39.872C111.961 39.3387 112.739 38.4853 113.721 37.312C113.977 37.0133 114.265 36.864 114.585 36.864C114.862 36.864 115.075 36.992 115.225 37.248C115.395 37.504 115.481 37.856 115.481 38.304C115.481 39.1573 115.278 39.8187 114.873 40.288C113.998 41.376 113.07 42.2933 112.089 43.04C111.107 43.7867 110.158 44.16 109.241 44.16C108.537 44.16 107.886 43.9253 107.289 43.456C106.713 42.9653 106.275 42.304 105.977 41.472C104.867 43.264 103.47 44.16 101.785 44.16ZM102.937 40.928C103.406 40.928 103.854 40.6507 104.281 40.096C104.707 39.5413 105.017 38.8053 105.209 37.888L106.393 32C105.497 32.0213 104.665 32.3627 103.897 33.024C103.15 33.664 102.553 34.5173 102.105 35.584C101.657 36.6507 101.433 37.7813 101.433 38.976C101.433 39.6373 101.561 40.128 101.817 40.448C102.094 40.768 102.467 40.928 102.937 40.928ZM118.832 44.864C117.722 44.864 116.869 44.608 116.272 44.096C115.696 43.584 115.408 43.008 115.408 42.368C115.408 41.8133 115.61 41.3333 116.016 40.928C116.421 40.5227 117.018 40.32 117.808 40.32C118.085 40.32 118.405 40.352 118.768 40.416C119.152 40.4587 119.44 40.4907 119.632 40.512C119.61 39.9573 119.482 39.4347 119.248 38.944C119.034 38.4533 118.757 37.984 118.416 37.536C118.074 37.0667 117.754 36.6613 117.456 36.32C116.794 37.5787 116.133 38.624 115.472 39.456C114.832 40.288 114.128 41.0773 113.36 41.824C112.976 42.208 112.57 42.4 112.144 42.4C111.802 42.4 111.525 42.2827 111.312 42.048C111.098 41.792 110.992 41.4827 110.992 41.12C110.992 40.6933 111.141 40.2987 111.44 39.936L111.856 39.424C113.029 37.9733 113.914 36.7787 114.512 35.84C114.874 35.2213 115.301 34.4 115.792 33.376C116.282 32.3307 116.762 31.2533 117.232 30.144C117.637 29.2053 118.48 28.736 119.76 28.736C120.357 28.736 120.773 28.7893 121.008 28.896C121.242 29.0027 121.36 29.1733 121.36 29.408C121.36 29.536 121.317 29.7387 121.232 30.016C121.146 30.2933 121.029 30.5707 120.88 30.848C120.496 31.616 120.304 32.2667 120.304 32.8C120.304 33.12 120.41 33.472 120.624 33.856C120.858 34.24 121.21 34.72 121.68 35.296C122.362 36.192 122.874 36.96 123.216 37.6C123.578 38.2187 123.76 38.9013 123.76 39.648C123.76 39.8613 123.738 40.16 123.696 40.544C124.741 40.1387 125.968 39.0613 127.376 37.312C127.632 37.0133 127.92 36.864 128.24 36.864C128.517 36.864 128.73 36.992 128.88 37.248C129.05 37.504 129.136 37.856 129.136 38.304C129.136 39.1147 128.933 39.776 128.528 40.288C127.461 41.6107 126.437 42.5173 125.456 43.008C124.496 43.4773 123.301 43.7333 121.872 43.776C121.018 44.5013 120.005 44.864 118.832 44.864ZM142.92 36.928C143.197 36.928 143.411 37.0667 143.56 37.344C143.731 37.6 143.816 37.9307 143.816 38.336C143.816 38.8267 143.741 39.2107 143.592 39.488C143.443 39.7653 143.208 40.0107 142.888 40.224L136.744 44.352C135.933 48.768 134.867 52.2347 133.544 54.752C132.243 57.2907 130.579 58.56 128.552 58.56C127.464 58.56 126.579 58.2187 125.896 57.536C125.213 56.8747 124.872 56 124.872 54.912C124.872 53.9093 125.096 52.8853 125.544 51.84C126.013 50.7947 126.867 49.5893 128.104 48.224C129.363 46.88 131.133 45.3333 133.416 43.584L133.512 42.848C133.661 42.0587 133.832 40.928 134.024 39.456C133.597 40.992 133 42.1653 132.232 42.976C131.464 43.7653 130.653 44.16 129.8 44.16C128.84 44.16 128.051 43.7227 127.432 42.848C126.835 41.952 126.536 40.8427 126.536 39.52C126.536 37.92 126.643 36.4587 126.856 35.136C127.069 33.792 127.421 32.3733 127.912 30.88C128.125 30.24 128.424 29.7813 128.808 29.504C129.192 29.2267 129.8 29.088 130.632 29.088C131.101 29.088 131.421 29.1627 131.592 29.312C131.784 29.4613 131.88 29.6853 131.88 29.984C131.88 30.1547 131.763 30.7307 131.528 31.712C131.315 32.5013 131.144 33.216 131.016 33.856C130.845 34.7307 130.696 35.5733 130.568 36.384C130.44 37.1733 130.376 37.824 130.376 38.336C130.376 39.1467 130.6 39.552 131.048 39.552C131.368 39.552 131.763 39.232 132.232 38.592C132.723 37.952 133.235 36.9813 133.768 35.68C134.323 34.3787 134.856 32.7787 135.368 30.88C135.539 30.24 135.795 29.7813 136.136 29.504C136.499 29.2267 137.032 29.088 137.736 29.088C138.227 29.088 138.568 29.152 138.76 29.28C138.952 29.408 139.048 29.6213 139.048 29.92C139.048 30.4533 138.771 32.288 138.216 35.424L137.384 40.576C139.027 39.3387 140.627 38.208 142.184 37.184C142.461 37.0133 142.707 36.928 142.92 36.928ZM128.904 55.456C129.437 55.456 130.035 54.8373 130.696 53.6C131.357 52.3627 132.019 50.304 132.68 47.424C131.037 48.8107 129.843 50.0693 129.096 51.2C128.371 52.352 128.008 53.3547 128.008 54.208C128.008 54.5707 128.072 54.8693 128.2 55.104C128.349 55.3387 128.584 55.456 128.904 55.456ZM166.329 36.864C166.606 36.864 166.819 36.992 166.969 37.248C167.139 37.504 167.225 37.856 167.225 38.304C167.225 39.136 167.022 39.7973 166.617 40.288C165.571 41.5253 164.537 42.4853 163.513 43.168C162.489 43.8293 161.347 44.16 160.089 44.16C158.19 44.16 156.75 43.5947 155.769 42.464C154.809 41.3333 154.03 39.68 153.433 37.504L152.345 33.536L144.793 42.88C144.366 43.4133 143.929 43.7653 143.481 43.936C143.033 44.0853 142.51 44.16 141.913 44.16C141.315 44.16 140.814 44.0533 140.409 43.84C140.024 43.6053 139.832 43.2853 139.832 42.88C139.832 42.3467 140.142 41.7387 140.761 41.056L151.129 29.248L150.105 25.504C149.614 23.7547 149.07 22.528 148.473 21.824C147.875 21.12 147.193 20.768 146.425 20.768C145.294 20.768 143.971 21.5893 142.457 23.232C142.201 23.5093 141.913 23.648 141.593 23.648C141.273 23.648 140.995 23.5307 140.761 23.296C140.547 23.04 140.441 22.72 140.441 22.336C140.441 21.696 140.75 21.0027 141.368 20.256C142.243 19.232 143.193 18.4107 144.217 17.792C145.241 17.1733 146.457 16.864 147.865 16.864C149.379 16.864 150.627 17.344 151.609 18.304C152.59 19.2427 153.369 20.768 153.945 22.88L154.585 25.12L160.185 18.304C160.611 17.792 161.049 17.4293 161.497 17.216C161.945 17.0027 162.489 16.896 163.129 16.896C163.705 16.896 164.153 17.0027 164.473 17.216C164.814 17.4293 164.985 17.728 164.985 18.112C164.985 18.624 164.697 19.2107 164.121 19.872L155.801 29.472L157.625 36C157.945 37.1307 158.233 37.9947 158.489 38.592C158.745 39.1893 159.054 39.6373 159.417 39.936C159.801 40.2133 160.302 40.352 160.921 40.352C161.582 40.352 162.265 40.1173 162.969 39.648C163.694 39.1787 164.526 38.4 165.465 37.312C165.721 37.0133 166.009 36.864 166.329 36.864ZM181.718 36.864C181.995 36.864 182.208 36.992 182.358 37.248C182.528 37.504 182.614 37.856 182.614 38.304C182.614 39.1573 182.411 39.8187 182.006 40.288C181.088 41.4187 180.096 42.3467 179.03 43.072C177.984 43.7973 176.79 44.16 175.446 44.16C174.315 44.16 173.398 43.7547 172.694 42.944C171.478 43.7333 170.208 44.1387 168.886 44.16C168.608 48.2773 167.979 51.712 166.998 54.464C166.016 57.2373 164.576 58.624 162.678 58.624C161.526 58.624 160.672 58.208 160.118 57.376C159.563 56.544 159.286 55.392 159.286 53.92C159.286 51.8293 159.766 49.3867 160.726 46.592C161.686 43.8187 163.168 40.7573 165.174 37.408C165.174 34.2933 165.152 32.128 165.11 30.912C165.088 30.2933 165.334 29.8027 165.846 29.44C166.358 29.0773 166.998 28.896 167.766 28.896C168.214 28.896 168.534 28.992 168.726 29.184C168.939 29.3547 169.056 29.7067 169.078 30.24C169.078 30.7733 169.088 31.168 169.11 31.424C169.792 30.5707 170.464 29.9627 171.126 29.6C171.787 29.216 172.491 29.024 173.238 29.024C174.432 29.024 175.403 29.504 176.15 30.464C176.918 31.424 177.302 32.6827 177.302 34.24C177.302 35.3707 177.12 36.4693 176.758 37.536C176.395 38.6027 175.894 39.5733 175.254 40.448C175.702 40.576 176.075 40.64 176.374 40.64C177.078 40.64 177.75 40.384 178.39 39.872C179.03 39.36 179.851 38.5067 180.854 37.312C181.11 37.0133 181.398 36.864 181.718 36.864ZM169.046 41.088C169.814 40.9173 170.518 40.5013 171.158 39.84C171.819 39.1573 172.342 38.3253 172.726 37.344C173.11 36.3413 173.302 35.296 173.302 34.208C173.302 33.568 173.174 33.088 172.918 32.768C172.662 32.4267 172.32 32.256 171.894 32.256C171.126 32.256 170.198 33.0667 169.11 34.688C169.088 35.6267 169.078 37.0027 169.078 38.816C169.078 39.7973 169.067 40.5547 169.046 41.088ZM162.934 55.488C163.51 55.488 163.99 54.2293 164.374 51.712C164.758 49.216 165.003 46.1013 165.11 42.368C164.192 44.5013 163.467 46.5387 162.934 48.48C162.4 50.4213 162.134 52.0533 162.134 53.376C162.134 54.0587 162.219 54.5813 162.39 54.944C162.539 55.3067 162.72 55.488 162.934 55.488ZM183.972 44.16C182.649 44.16 181.593 43.68 180.804 42.72C180.015 41.76 179.62 40.5013 179.62 38.944C179.62 37.2373 180.015 35.6267 180.804 34.112C181.593 32.576 182.639 31.3493 183.94 30.432C185.263 29.4933 186.66 29.024 188.132 29.024C188.601 29.024 188.911 29.12 189.06 29.312C189.231 29.4827 189.369 29.8027 189.476 30.272C189.924 30.1867 190.393 30.144 190.884 30.144C191.929 30.144 192.452 30.5173 192.452 31.264C192.452 31.712 192.292 32.7787 191.972 34.464C191.481 36.9173 191.236 38.624 191.236 39.584C191.236 39.904 191.311 40.16 191.46 40.352C191.631 40.544 191.844 40.64 192.1 40.64C192.505 40.64 192.996 40.384 193.572 39.872C194.148 39.3387 194.927 38.4853 195.908 37.312C196.164 37.0133 196.452 36.864 196.772 36.864C197.049 36.864 197.263 36.992 197.412 37.248C197.583 37.504 197.668 37.856 197.668 38.304C197.668 39.1573 197.465 39.8187 197.06 40.288C196.185 41.376 195.257 42.2933 194.276 43.04C193.295 43.7867 192.345 44.16 191.428 44.16C190.724 44.16 190.073 43.9253 189.476 43.456C188.9 42.9653 188.463 42.304 188.164 41.472C187.055 43.264 185.657 44.16 183.972 44.16ZM185.124 40.928C185.593 40.928 186.041 40.6507 186.468 40.096C186.895 39.5413 187.204 38.8053 187.396 37.888L188.58 32C187.684 32.0213 186.852 32.3627 186.084 33.024C185.337 33.664 184.74 34.5173 184.292 35.584C183.844 36.6507 183.62 37.7813 183.62 38.976C183.62 39.6373 183.748 40.128 184.004 40.448C184.281 40.768 184.655 40.928 185.124 40.928ZM200.347 32.128C200.305 33.1947 200.283 34.0267 200.283 34.624C200.283 36.16 200.358 37.3653 200.507 38.24C200.678 39.0933 200.945 39.712 201.307 40.096C201.691 40.4587 202.214 40.64 202.875 40.64C203.217 40.64 203.622 40.5333 204.091 40.32C204.561 40.1067 204.987 39.8293 205.371 39.488C205.606 39.2747 205.841 39.168 206.075 39.168C206.331 39.168 206.534 39.3173 206.683 39.616C206.854 39.8933 206.939 40.2347 206.939 40.64C206.939 41.0453 206.854 41.44 206.683 41.824C206.534 42.208 206.299 42.528 205.979 42.784C204.87 43.7013 203.611 44.16 202.203 44.16C200.177 44.16 198.694 43.3173 197.755 41.632C196.817 39.9253 196.347 37.7067 196.347 34.976C196.347 34.0373 196.379 33.088 196.443 32.128H195.195C194.555 32.128 194.118 32.0107 193.883 31.776C193.67 31.5413 193.563 31.168 193.563 30.656C193.563 29.4613 194.043 28.864 195.003 28.864H196.827C197.19 26.5173 197.745 24.3733 198.491 22.432C199.238 20.4907 200.134 18.944 201.179 17.792C202.246 16.64 203.387 16.064 204.603 16.064C205.499 16.064 206.203 16.4587 206.715 17.248C207.227 18.0373 207.483 19.0293 207.483 20.224C207.483 23.5307 206.097 26.4107 203.323 28.864H206.907C207.249 28.864 207.494 28.9387 207.643 29.088C207.793 29.2373 207.867 29.5147 207.867 29.92C207.867 31.392 206.662 32.128 204.251 32.128H200.347ZM203.739 19.136C203.419 19.136 203.057 19.5413 202.651 20.352C202.267 21.1413 201.894 22.2507 201.531 23.68C201.19 25.088 200.902 26.656 200.667 28.384C201.926 27.296 202.865 26.08 203.483 24.736C204.123 23.3707 204.443 22.1333 204.443 21.024C204.443 19.7653 204.209 19.136 203.739 19.136Z" fill="white"/>
<path opacity="0.4" d="M-1.90735e-06 17L16 17L16 1.90735e-06L-1.90735e-06 17Z" fill="white"/>
<path d="M47 17H16V50L47 17Z" fill="white"/>
</svg>
